<svg width="722" height="273" viewBox="0 0 722 273" fill="none" xmlns="http://www.w3.org/2000/svg">
<path d="M0.107956 222.534H-1.89205V224.534H0.107956V222.534ZM126.543 222.534H128.543V220.534H126.543V222.534ZM126.543 266H124.543V268H126.543V266ZM187.011 266V268H189.011V266H187.011ZM187.011 222.534V220.534H185.011V222.534H187.011ZM218.332 222.534V224.534H220.332V222.534H218.332ZM218.332 172.676H220.332V170.676H218.332V172.676ZM187.011 172.676H185.011V174.676H187.011V172.676ZM187.011 4.18181H189.011V2.18181H187.011V4.18181ZM107.366 4.18181V2.18181H106.267L105.678 3.11013L107.366 4.18181ZM0.107956 173.188L-1.58068 172.116L-1.89205 172.606V173.188H0.107956ZM127.821 172.676V174.676H129.821V172.676H127.821ZM63.0057 172.676H61.0057V174.676H63.0057V172.676ZM63.0057 170.631L61.3143 169.563L61.0057 170.052V170.631H63.0057ZM125.776 71.1705V69.1705H124.673L124.084 70.103L125.776 71.1705ZM127.821 71.1705H129.821V69.1705H127.821V71.1705ZM0.107956 224.534H126.543V220.534H0.107956V224.534ZM124.543 222.534V266H128.543V222.534H124.543ZM126.543 268H187.011V264H126.543V268ZM189.011 266V222.534H185.011V266H189.011ZM187.011 224.534H218.332V220.534H187.011V224.534ZM220.332 222.534V172.676H216.332V222.534H220.332ZM218.332 170.676H187.011V174.676H218.332V170.676ZM189.011 172.676V4.18181H185.011V172.676H189.011ZM187.011 2.18181H107.366V6.18181H187.011V2.18181ZM105.678 3.11013L-1.58068 172.116L1.79659 174.259L109.055 5.25349L105.678 3.11013ZM-1.89205 173.188V222.534H2.10796V173.188H-1.89205ZM127.821 170.676H63.0057V174.676H127.821V170.676ZM65.0057 172.676V170.631H61.0057V172.676H65.0057ZM64.697 171.698L127.467 72.2379L124.084 70.103L61.3143 169.563L64.697 171.698ZM125.776 73.1705H127.821V69.1705H125.776V73.1705ZM125.821 71.1705V172.676H129.821V71.1705H125.821ZM359.788 272.392L359.792 270.392H359.788V272.392ZM470.499 135.474L468.499 135.471V135.471L470.499 135.474ZM249.206 135.474L251.206 135.48V135.477L249.206 135.474ZM314.277 135.474L316.277 135.483V135.479L314.277 135.474ZM405.428 135.474L407.428 135.47V135.47L405.428 135.474ZM359.785 274.392C394.583 274.457 422.826 261.611 442.342 237.652C461.816 213.745 472.434 178.985 472.499 135.477L468.499 135.471C468.435 178.384 457.959 212.147 439.241 235.126C420.565 258.052 393.517 270.455 359.792 270.392L359.785 274.392ZM472.499 135.477C472.563 92.2185 461.943 57.9911 442.425 34.5429C422.867 11.0477 394.562 -1.39774 359.788 -1.39774V2.60226C393.538 2.60226 420.651 14.6384 439.35 37.102C458.088 59.6126 468.562 92.8213 468.499 135.471L472.499 135.477ZM359.788 -1.39774C325.015 -1.39774 296.805 11.0156 277.31 34.497C257.857 57.929 247.27 92.1545 247.206 135.471L251.206 135.477C251.269 92.7574 261.713 59.5468 280.388 37.052C299.022 14.6066 326.039 2.60226 359.788 2.60226V-1.39774ZM247.206 135.468C247.077 178.855 257.664 213.585 277.155 237.508C296.686 261.482 324.991 274.392 359.788 274.392V270.392C326.063 270.392 298.949 257.926 280.256 234.982C261.522 211.988 251.079 178.259 251.206 135.48L247.206 135.468ZM359.788 218.616C346.985 218.616 336.162 212.247 328.464 198.725C320.704 185.095 316.15 164.21 316.277 135.483L312.277 135.466C312.148 164.523 316.735 186.209 324.987 200.704C333.301 215.307 345.362 222.616 359.788 222.616V218.616ZM316.277 135.479C316.341 107.327 320.924 86.8578 328.649 73.4979C336.31 60.2476 347.037 53.9943 359.788 53.9943V49.9943C345.438 49.9943 333.472 57.1643 325.186 71.4957C316.963 85.7175 312.341 106.989 312.277 135.47L316.277 135.479ZM359.788 53.9943C372.608 53.9943 383.365 60.2511 391.041 73.4994C398.781 86.8585 403.364 107.326 403.428 135.479L407.428 135.47C407.363 106.989 402.742 85.7168 394.502 71.4942C386.197 57.1608 374.199 49.9943 359.788 49.9943V53.9943ZM403.428 135.479C403.491 164.208 398.938 185.094 391.177 198.725C383.479 212.246 372.658 218.616 359.788 218.616V222.616C374.277 222.616 386.339 215.308 394.653 200.704C402.905 186.21 407.492 164.525 407.428 135.47L403.428 135.479ZM503.545 222.534H501.545V224.534H503.545V222.534ZM629.98 222.534H631.98V220.534H629.98V222.534ZM629.98 266H627.98V268H629.98V266ZM690.449 266V268H692.449V266H690.449ZM690.449 222.534V220.534H688.449V222.534H690.449ZM721.77 222.534V224.534H723.77V222.534H721.77ZM721.77 172.676H723.77V170.676H721.77V172.676ZM690.449 172.676H688.449V174.676H690.449V172.676ZM690.449 4.18181H692.449V2.18181H690.449V4.18181ZM610.804 4.18181V2.18181H609.704L609.115 3.11013L610.804 4.18181ZM503.545 173.188L501.857 172.116L501.545 172.606V173.188H503.545ZM631.259 172.676V174.676H633.259V172.676H631.259ZM566.443 172.676H564.443V174.676H566.443V172.676ZM566.443 170.631L564.752 169.563L564.443 170.052V170.631H566.443ZM629.213 71.1705V69.1705H628.11L627.522 70.103L629.213 71.1705ZM631.259 71.1705H633.259V69.1705H631.259V71.1705ZM503.545 224.534H629.98V220.534H503.545V224.534ZM627.98 222.534V266H631.98V222.534H627.98ZM629.98 268H690.449V264H629.98V268ZM692.449 266V222.534H688.449V266H692.449ZM690.449 224.534H721.77V220.534H690.449V224.534ZM723.77 222.534V172.676H719.77V222.534H723.77ZM721.77 170.676H690.449V174.676H721.77V170.676ZM692.449 172.676V4.18181H688.449V172.676H692.449ZM690.449 2.18181H610.804V6.18181H690.449V2.18181ZM609.115 3.11013L501.857 172.116L505.234 174.259L612.493 5.25349L609.115 3.11013ZM501.545 173.188V222.534H505.545V173.188H501.545ZM631.259 170.676H566.443V174.676H631.259V170.676ZM568.443 172.676V170.631H564.443V172.676H568.443ZM568.135 171.698L630.904 72.2379L627.522 70.103L564.752 169.563L568.135 171.698ZM629.213 73.1705H631.259V69.1705H629.213V73.1705ZM629.259 71.1705V172.676H633.259V71.1705H629.259Z" fill="#6D6AFE"/>
</svg>
